# File created by Blade
# Date/Time:  Tue Jan 27 19:00:36 2015
# Frame Rate: 120.000 fps
#------------------------------------------------------
:FULLY-SPECIFIED
:DEGREES
3198
root -2.508625 31.851254 -4.769695 27.367713 -58.625141 -21.674802
Spine 6.015920 5.192013 -3.443973
Head 13.289865 36.842610 14.597266
LeftShoulder -20.793882 19.997881 13.779942
LeftArm -2.609471 -47.958061 -75.863258
LeftForeArm -6.379477 0.000000 111.843786
LeftHand -15.811883 0.000000 33.750225
LeftHandThumb1 -26.253704 0.000000 33.147579
RightShoulder -7.936414 1.943456 -7.702578
RightArm 7.877259 -20.135477 81.916672
RightForeArm -30.869184 0.000000 31.191901
RightHand -15.876744 -0.000000 5.759231
RightHandThumb1 -24.326973 -0.000000 -32.862282
LeftUpLeg -16.490736 21.140512 -5.133789
LeftLeg 16.679097 -0.000000 -0.000000
LeftFoot -31.768963 38.384598 -17.697446
LeftToeBase 11.101364 -0.000000 -0.000000
RightUpLeg -41.108237 -49.663070 12.960406
RightLeg 89.035574 -0.000000 -0.000000
RightFoot -14.789160 -24.056849 14.580228
RightToeBase -1.040052 -0.000000 0.000000
3199
root -2.509113 31.847343 -4.765281 27.287328 -58.608439 -21.608334
Spine 6.014019 5.197521 -3.484708
Head 13.308530 36.773249 14.685727
LeftShoulder -20.821042 19.993542 13.785296
LeftArm -2.578617 -47.909962 -75.881543
LeftForeArm -6.368707 0.000000 111.883956
LeftHand -15.790596 -0.000000 33.853109
LeftHandThumb1 -26.253704 0.000000 33.147579
RightShoulder -7.987588 1.952058 -7.670375
RightArm 7.888616 -20.170088 81.875674
RightForeArm -30.875820 -0.000000 31.150387
RightHand -15.853106 0.000000 5.808854
RightHandThumb1 -24.326973 -0.000000 -32.862282
LeftUpLeg -16.474466 21.138896 -5.147565
LeftLeg 16.738516 -0.000000 -0.000000
LeftFoot -31.861112 38.243400 -17.795310
LeftToeBase 11.140929 -0.000000 -0.000000
RightUpLeg -40.944217 -49.559119 12.734332
RightLeg 89.080932 -0.000000 -0.000000
RightFoot -14.691124 -24.040863 14.487736
RightToeBase -1.088645 -0.000000 0.000000
3200
root -2.508838 31.842296 -4.760688 27.209196 -58.582342 -21.548323
Spine 5.997711 5.175369 -3.510923
Head 13.417349 36.704469 14.810741
LeftShoulder -20.812475 19.995580 13.802022
LeftArm -2.609593 -47.911820 -75.879185
LeftForeArm -6.384324 -0.000000 111.944966
LeftHand -15.782581 0.000000 33.930595
LeftHandThumb1 -26.253704 0.000000 33.147579
RightShoulder -7.992827 1.918008 -7.649560
RightArm 7.915708 -20.159881 81.848834
RightForeArm -30.953178 -0.000000 31.131386
RightHand -15.826550 0.000000 6.060010
RightHandThumb1 -24.326973 -0.000000 -32.862282
LeftUpLeg -16.463659 21.166058 -5.178913
LeftLeg 16.755503 -0.000000 -0.000000
LeftFoot -31.849360 38.259469 -17.722531
LeftToeBase 11.107753 -0.000000 -0.000000
RightUpLeg -40.768385 -49.459974 12.493215
RightLeg 89.096105 -0.000000 -0.000000
RightFoot -14.488346 -24.151902 14.192379
RightToeBase -1.326723 -0.000000 0.000000
3201
root -2.508722 31.837721 -4.754801 27.129684 -58.567132 -21.483275
Spine 5.968030 5.163286 -3.541124
Head 13.565562 36.597298 14.943958
LeftShoulder -20.792056 19.945074 13.822692
LeftArm -2.721394 -47.892062 -75.798406
LeftForeArm -6.376604 -0.000000 112.009335
LeftHand -15.750097 -0.000000 34.071506
LeftHandThumb1 -26.253704 0.000000 33.147579
RightShoulder -8.006417 1.887792 -7.620589
RightArm 7.942536 -20.140061 81.822407
RightForeArm -30.979055 0.000000 31.099795
RightHand -15.802982 -0.000000 6.122266
RightHandThumb1 -24.326973 -0.000000 -32.862282
LeftUpLeg -16.444207 21.164793 -5.198770
LeftLeg 16.801323 -0.000000 -0.000000
LeftFoot -31.922599 38.155813 -17.787852
LeftToeBase 11.163583 -0.000000 -0.000000
RightUpLeg -40.574529 -49.321198 12.203598
RightLeg 89.122886 -0.000000 -0.000000
RightFoot -14.654713 -24.042079 14.438758
RightToeBase -1.059094 -0.000000 0.000000
3202
root -2.508468 31.833088 -4.749226 27.051234 -58.548393 -21.422008
Spine 5.944882 5.139316 -3.565457
Head 13.706465 36.496654 15.056937
LeftShoulder -20.811265 19.944360 13.819736
LeftArm -2.708374 -47.877348 -75.822289
LeftForeArm -6.360545 -0.000000 112.061003
LeftHand -15.748386 -0.000000 34.184845
LeftHandThumb1 -26.253704 0.000000 33.147579
RightShoulder -7.985366 1.919354 -7.602178
RightArm 7.889577 -20.129133 81.812393
RightForeArm -30.996414 -0.000000 31.098568
RightHand -15.806250 -0.000000 6.180241
RightHandThumb1 -24.326973 -0.000000 -32.862282
LeftUpLeg -16.427028 21.155456 -5.219818
LeftLeg 16.838152 -0.000000 -0.000000
LeftFoot -31.977452 38.103123 -17.827624
LeftToeBase 11.158083 -0.000000 -0.000000
RightUpLeg -40.365912 -49.197828 11.902070
RightLeg 89.115096 -0.000000 -0.000000
RightFoot -14.487749 -24.159715 14.210622
RightToeBase -1.153968 -0.000000 0.000000
3203
root -2.506389 31.828236 -4.743731 26.975558 -58.524746 -21.350701
Spine 5.922773 5.144995 -3.588987
Head 13.791471 36.350575 15.135093
LeftShoulder -20.799118 19.911192 13.832375
LeftArm -2.728668 -47.861586 -75.813666
LeftForeArm -6.341902 -0.000000 112.113405
LeftHand -15.782958 -0.000000 34.261657
LeftHandThumb1 -26.253704 0.000000 33.147579
RightShoulder -8.035420 1.867860 -7.580585
RightArm 7.951783 -20.165078 81.762589
RightForeArm -30.987745 -0.000000 31.084952
RightHand -15.936932 -0.000000 6.152020
RightHandThumb1 -24.326973 -0.000000 -32.862282
LeftUpLeg -16.421097 21.119352 -5.250900
LeftLeg 16.858447 -0.000000 -0.000000
LeftFoot -31.992893 38.120007 -17.814000
LeftToeBase 11.158019 -0.000000 -0.000000
RightUpLeg -40.180382 -49.053604 11.598117
RightLeg 89.100940 -0.000000 -0.000000
RightFoot -14.678934 -24.151300 14.489297
RightToeBase -0.625246 -0.000000 0.000000
3204
root -2.505389 31.823761 -4.737756 26.915139 -58.507368 -21.302347
Spine 5.890590 5.133253 -3.609163
Head 13.851181 36.129592 15.146851
LeftShoulder -20.838304 20.000241 13.808778
LeftArm -2.557372 -47.859434 -75.979166
LeftForeArm -6.280704 0.000000 112.160147
LeftHand -15.792612 -0.000000 34.274985
LeftHandThumb1 -26.253704 0.000000 33.147579
RightShoulder -8.032896 1.832914 -7.555647
RightArm 7.973296 -20.170584 81.724867
RightForeArm -30.990211 -0.000000 31.089228
RightHand -15.939936 0.000000 6.140535
RightHandThumb1 -24.326973 -0.000000 -32.862282
LeftUpLeg -16.407056 21.077855 -5.269131
LeftLeg 16.880218 -0.000000 -0.000000
LeftFoot -32.028394 38.138854 -17.809390
LeftToeBase 11.196462 -0.000000 -0.000000
RightUpLeg -39.962452 -48.882963 11.269962
RightLeg 89.049944 -0.000000 -0.000000
RightFoot -14.657328 -24.336166 14.415520
RightToeBase -0.813430 -0.000000 0.000000
3205
root -2.504421 31.820108 -4.732060 26.886976 -58.495767 -21.289000
Spine 5.870720 5.160896 -3.596454
Head 14.005874 36.015329 15.270063
LeftShoulder -20.856549 19.994832 13.788926
LeftArm -2.494733 -47.836813 -76.028540
LeftForeArm -6.266774 -0.000000 112.190392
LeftHand -15.807202 -0.000000 34.295546
LeftHandThumb1 -26.253704 0.000000 33.147579
RightShoulder -8.067748 1.833073 -7.545105
RightArm 7.966989 -20.177618 81.696977
RightForeArm -30.947968 0.000000 31.099584
RightHand -15.955940 -0.000000 5.986665
RightHandThumb1 -24.326973 -0.000000 -32.862282
LeftUpLeg -16.392985 21.033143 -5.272075
LeftLeg 16.892718 -0.000000 -0.000000
LeftFoot -32.051372 38.194413 -17.794972
LeftToeBase 11.176722 -0.000000 -0.000000
RightUpLeg -39.758269 -48.705097 10.959577
RightLeg 88.956796 -0.000000 -0.000000
RightFoot -14.704682 -24.539733 14.356168
RightToeBase -1.190670 -0.000000 0.000000
3206
root -2.503160 31.816436 -4.725837 26.856620 -58.494417 -21.274631
Spine 5.844659 5.173634 -3.594897
Head 14.125432 35.806076 15.323668
LeftShoulder -20.894822 20.018740 13.765439
LeftArm -2.415512 -47.810547 -76.101706
LeftForeArm -6.221679 -0.000000 112.231545
LeftHand -15.836304 -0.000000 34.314246
LeftHandThumb1 -26.253704 0.000000 33.147579
RightShoulder -8.070998 1.833586 -7.537434
RightArm 7.956374 -20.192611 81.674296
RightForeArm -30.926584 -0.000000 31.119240
RightHand -15.962878 -0.000000 5.978820
RightHandThumb1 -24.326973 -0.000000 -32.862282
LeftUpLeg -16.386612 21.033174 -5.301681
LeftLeg 16.905657 -0.000000 -0.000000
LeftFoot -32.011672 38.223538 -17.699896
LeftToeBase 11.114197 -0.000000 -0.000000
RightUpLeg -39.541502 -48.500371 10.624419
RightLeg 88.877868 -0.000000 -0.000000
RightFoot -14.829034 -24.650369 14.494057
RightToeBase -0.398684 -0.000000 0.000000
3207
root -2.501222 31.813186 -4.719140 26.819441 -58.492836 -21.251701
Spine 5.795686 5.171475 -3.606292
Head 14.248484 35.487067 15.336627
LeftShoulder -20.886534 20.051579 13.792308
LeftArm -2.418927 -47.818808 -76.164382
LeftForeArm -6.205908 -0.000000 112.272705
LeftHand -15.811852 -0.000000 34.267958
LeftHandThumb1 -26.253704 0.000000 33.147579
RightShoulder -8.031157 1.762372 -7.511876
RightArm 8.007757 -20.187212 81.620268
RightForeArm -30.897717 0.000000 31.126580
RightHand -15.948173 -0.000000 5.995778
RightHandThumb1 -24.326973 -0.000000 -32.862282
LeftUpLeg -16.357539 20.964598 -5.310184
LeftLeg 16.888666 -0.000000 -0.000000
LeftFoot -32.054207 38.320170 -17.723299
LeftToeBase 11.114338 -0.000000 -0.000000
RightUpLeg -39.320099 -48.285312 10.268911
RightLeg 88.749911 -0.000000 -0.000000
RightFoot -14.866429 -24.809674 14.655718
RightToeBase -0.438685 -0.000000 0.000000
3208
root -2.500982 31.812022 -4.714012 26.832651 -58.488716 -21.299331
Spine 5.778879 5.196220 -3.573361
Head 14.366282 35.193642 15.369432
LeftShoulder -20.894930 20.068777 13.787536
LeftArm -2.398489 -47.818062 -76.214521
LeftForeArm -6.203428 -0.000000 112.311695
LeftHand -15.834832 -0.000000 34.270426
LeftHandThumb1 -26.253704 0.000000 33.147579
RightShoulder -8.022504 1.753500 -7.493480
RightArm 8.012873 -20.189377 81.584175
RightForeArm -30.900118 -0.000000 31.134041
RightHand -15.852325 -0.000000 5.963744
RightHandThumb1 -24.326973 -0.000000 -32.862282
LeftUpLeg -16.336473 20.937358 -5.282320
LeftLeg 16.915125 -0.000000 -0.000000
LeftFoot -32.109892 38.368208 -17.745051
LeftToeBase 11.167381 -0.000000 -0.000000
RightUpLeg -39.081339 -48.075856 9.953382
RightLeg 88.545924 -0.000000 -0.000000
RightFoot -14.766676 -25.141453 14.316857
RightToeBase -0.630423 -0.000000 0.000000
3209
root -2.499249 31.810985 -4.708125 26.853925 -58.484964 -21.344791
Spine 5.764164 5.210163 -3.530422
Head 14.531536 34.960384 15.442152
LeftShoulder -20.900158 19.997590 13.789247
LeftArm -2.535778 -47.804875 -76.126969
LeftForeArm -6.220885 -0.000000 112.348314
LeftHand -15.831643 -0.000000 34.228948
LeftHandThumb1 -26.253704 0.000000 33.147579
RightShoulder -8.016243 1.746245 -7.499437
RightArm 8.019152 -20.175540 81.572051
RightForeArm -30.958159 -0.000000 31.152912
RightHand -15.797212 0.000000 5.976592
RightHandThumb1 -24.326973 -0.000000 -32.862282
LeftUpLeg -16.316537 20.892135 -5.257363
LeftLeg 16.917742 -0.000000 -0.000000
LeftFoot -32.131352 38.438489 -17.750259
LeftToeBase 11.138971 -0.000000 -0.000000
RightUpLeg -38.849532 -47.853784 9.635657
RightLeg 88.327316 -0.000000 -0.000000
RightFoot -14.942744 -25.229532 14.641466
RightToeBase -0.724688 -0.000000 0.000000
3210
root -2.497462 31.810759 -4.701917 26.878952 -58.490350 -21.398314
Spine 5.747146 5.248002 -3.492477
Head 14.642309 34.644588 15.435727
LeftShoulder -20.897196 20.012515 13.791802
LeftArm -2.553370 -47.797806 -76.155415
LeftForeArm -6.216152 0.000000 112.372979
LeftHand -15.830992 -0.000000 34.223233
LeftHandThumb1 -26.253704 0.000000 33.147579
RightShoulder -8.014591 1.758684 -7.490939
RightArm 8.011270 -20.181347 81.545901
RightForeArm -30.953969 -0.000000 31.176542
RightHand -15.779631 -0.000000 6.047457
RightHandThumb1 -24.326973 -0.000000 -32.862282
LeftUpLeg -16.287873 20.859672 -5.231346
LeftLeg 16.911227 -0.000000 -0.000000
LeftFoot -32.138468 38.512112 -17.739281
LeftToeBase 11.124432 -0.000000 -0.000000
RightUpLeg -38.621147 -47.623014 9.317500
RightLeg 88.077387 -0.000000 -0.000000
RightFoot -14.984678 -25.346113 14.642904
RightToeBase -0.700633 -0.000000 0.000000
